<?xml version="1.0" standalone="no"?>
<!DOCTYPE svg PUBLIC "-//W3C//DTD SVG 20010904//EN"
 "http://www.w3.org/TR/2001/REC-SVG-20010904/DTD/svg10.dtd">
<svg version="1.0" xmlns="http://www.w3.org/2000/svg"
 width="512.000000pt" height="512.000000pt" viewBox="0 0 512.000000 512.000000"
 preserveAspectRatio="xMidYMid meet">

<g transform="translate(0.000000,512.000000) scale(0.100000,-0.100000)"
fill="#fff" stroke="none">
<path d="M2459 4464 c-74 -26 -138 -81 -178 -154 -33 -61 -36 -71 -35 -150 0
-100 24 -160 87 -223 35 -35 38 -43 32 -73 -12 -67 -114 -410 -150 -509 -80
-215 -186 -395 -234 -395 -68 0 -248 152 -366 308 l-62 84 21 41 c32 64 30
184 -5 258 -33 70 -89 127 -154 159 -73 35 -199 35 -270 0 -182 -89 -239 -309
-124 -477 34 -49 99 -97 157 -115 l41 -13 8 -65 c4 -36 8 -153 8 -260 0 -283
-33 -410 -108 -410 -102 0 -327 116 -489 252 l-28 23 16 45 c11 32 15 64 11
112 -9 113 -69 205 -169 259 -58 31 -70 34 -148 34 -73 0 -92 -4 -138 -28 -65
-34 -122 -92 -153 -155 -19 -38 -24 -63 -24 -132 1 -77 4 -91 34 -148 19 -35
48 -74 64 -88 42 -35 115 -70 163 -78 l42 -7 65 -137 c112 -236 213 -493 278
-712 12 -41 29 -83 37 -92 14 -17 116 -18 1872 -18 1756 0 1858 1 1872 18 8 9
25 51 37 92 61 208 166 478 278 712 l65 137 42 7 c94 15 179 78 227 166 30 57
33 71 34 148 0 74 -4 92 -28 137 -34 66 -84 116 -150 150 -45 24 -64 28 -137
28 -73 0 -92 -4 -136 -27 -76 -40 -107 -70 -144 -139 -41 -77 -51 -169 -26
-239 l16 -45 -33 -27 c-154 -131 -382 -248 -484 -248 -75 0 -108 127 -108 410
0 107 4 224 8 260 l8 66 43 13 c68 20 135 78 175 151 34 61 36 71 35 150 0
101 -24 161 -91 228 -64 64 -120 85 -223 86 -70 0 -94 -4 -135 -24 -65 -32
-121 -89 -154 -159 -35 -74 -37 -194 -5 -258 l21 -41 -62 -84 c-118 -156 -298
-308 -366 -308 -48 0 -154 180 -234 395 -37 100 -138 442 -151 509 -5 31 -2
39 23 60 16 14 45 53 64 88 30 57 33 71 34 148 0 78 -3 90 -34 148 -38 71 -70
101 -145 139 -65 33 -169 41 -237 17z m213 -1940 c42 -30 78 -82 103 -154 22
-60 30 -201 16 -275 -16 -88 -67 -181 -119 -219 -39 -27 -52 -31 -111 -31 -59
0 -73 4 -110 29 -75 52 -119 151 -128 286 -12 191 61 354 174 390 50 16 131 4
175 -26z"/>
<path d="M776 1258 c-12 -20 -12 -37 0 -119 7 -52 17 -164 22 -247 9 -164 14
-180 76 -226 l27 -21 1659 0 1659 0 27 21 c62 46 67 62 76 226 5 83 15 195 22
247 12 82 12 99 0 119 l-14 22 -1770 0 -1770 0 -14 -22z"/>
</g>
</svg>
