<svg width="48" height="47" viewBox="0 0 48 47" fill="none" xmlns="http://www.w3.org/2000/svg">
<path fill-rule="evenodd" clip-rule="evenodd" d="M33.2676 31.1842C32.9025 28.0791 31.5686 24.1938 29.3177 20.2951C27.0668 16.3964 24.369 13.2986 21.8624 11.4299C20.6077 10.4945 19.4379 9.89465 18.427 9.6334C17.4217 9.37358 16.6382 9.46173 16.0507 9.80092C15.4632 10.1401 14.9951 10.7746 14.7174 11.7751C14.4382 12.7812 14.3728 14.0942 14.5555 15.6485C14.9206 18.7536 16.2545 22.6389 18.5054 26.5376C20.7563 30.4363 23.4541 33.5341 25.9607 35.4028C27.2154 36.3382 28.3852 36.9381 29.3961 37.1993C30.4014 37.4592 31.1849 37.371 31.7724 37.0318C32.3599 36.6926 32.828 36.0582 33.1057 35.0576C33.3849 34.0515 33.4503 32.7385 33.2676 31.1842ZM32.2348 37.8327C35.6629 35.8535 34.7154 27.7947 30.1186 19.8327C25.5218 11.8708 19.0163 7.02082 15.5883 9.00001C12.1602 10.9792 13.1077 19.0381 17.7045 27C22.3013 34.9619 28.8068 39.8119 32.2348 37.8327Z" fill="white"/>
<path fill-rule="evenodd" clip-rule="evenodd" d="M25.9608 11.4299C23.4542 13.2986 20.7564 16.3964 18.5055 20.2951C16.2546 24.1938 14.9207 28.0791 14.5556 31.1842C14.3729 32.7385 14.4383 34.0515 14.7175 35.0576C14.9952 36.0582 15.4633 36.6926 16.0508 37.0318C16.6383 37.371 17.4218 37.4591 18.4271 37.1993C19.438 36.9381 20.6078 36.3382 21.8625 35.4028C24.3691 33.5341 27.0669 30.4363 29.3178 26.5376C31.5687 22.6389 32.9026 18.7536 33.2677 15.6485C33.4504 14.0942 33.385 12.7812 33.1058 11.7751C32.8281 10.7746 32.36 10.1401 31.7725 9.80091C31.185 9.46172 30.4015 9.37357 29.3962 9.63339C28.3853 9.89465 27.2155 10.4945 25.9608 11.4299ZM32.2349 9.00001C28.8069 7.02082 22.3014 11.8708 17.7046 19.8327C13.1078 27.7947 12.1603 35.8535 15.5884 37.8327C19.0164 39.8119 25.5219 34.9619 30.1187 27C34.7155 19.0381 35.663 10.9792 32.2349 9.00001Z" fill="white"/>
<path fill-rule="evenodd" clip-rule="evenodd" d="M12.5067 27.635C15.3784 28.8714 19.4101 29.6588 23.9119 29.6588C28.4137 29.6588 32.4454 28.8714 35.3171 27.635C36.7545 27.0161 37.8589 26.3029 38.5906 25.5581C39.3183 24.8173 39.6337 24.0947 39.6337 23.4164C39.6337 22.738 39.3183 22.0154 38.5906 21.2746C37.8589 20.5298 36.7545 19.8166 35.3171 19.1978C32.4454 17.9613 28.4137 17.1739 23.9119 17.1739C19.4101 17.1739 15.3784 17.9613 12.5067 19.1978C11.0693 19.8166 9.96493 20.5298 9.23322 21.2746C8.50554 22.0154 8.19013 22.738 8.19013 23.4164C8.19013 24.0947 8.50554 24.8173 9.23322 25.5581C9.96493 26.3029 11.0693 27.0161 12.5067 27.635ZM7.26532 23.4164C7.26532 27.3747 14.7182 30.5836 23.9119 30.5836C33.1055 30.5836 40.5585 27.3747 40.5585 23.4164C40.5585 19.458 33.1055 16.2491 23.9119 16.2491C14.7182 16.2491 7.26532 19.458 7.26532 23.4164Z" fill="white"/>
<path d="M26.915 21.6823C27.8088 23.2305 27.2784 25.2101 25.7302 26.1039C24.182 26.9978 22.2024 26.4673 21.3086 24.9192C20.4148 23.371 20.9452 21.3914 22.4934 20.4976C24.0415 19.6038 26.0211 20.1342 26.915 21.6823Z" fill="white"/>
</svg>
