<svg width="141" height="96" viewBox="0 0 141 96" fill="none" xmlns="http://www.w3.org/2000/svg">
<rect y="51.9322" width="43.9246" height="44.0678" fill="#C800C0"/>
<rect width="11.1996" height="44.0678" transform="matrix(0.705955 -0.708257 0 1 43.9246 51.9322)" fill="#A00090"/>
<rect width="43.9246" height="11.439" transform="matrix(1 0 -0.705955 0.708257 8.07544 44)" fill="#A00090"/>
<rect x="44" y="51.9322" width="44.7693" height="44.0678" fill="#C800C0"/>
<rect width="11.3075" height="44.0678" transform="matrix(0.712668 -0.701501 0 1 88.7693 51.9322)" fill="#A00090"/>
<rect width="44.7693" height="11.5492" transform="matrix(1 0 -0.712668 0.701501 52.2307 44)" fill="#A00090"/>
<rect x="44" y="7.93221" width="44.7693" height="44.0678" fill="#C800C0"/>
<rect width="11.3075" height="44.0678" transform="matrix(0.712668 -0.701501 0 1 88.7693 7.93221)" fill="#A00090"/>
<rect width="44.7693" height="11.5492" transform="matrix(1 0 -0.712668 0.701501 52.2307 0)" fill="#A00090"/>
<rect x="89" y="51.9322" width="43.9246" height="44.0678" fill="#C800C0"/>
<rect width="11.1996" height="44.0678" transform="matrix(0.705955 -0.708257 0 1 132.925 51.9322)" fill="#A00090"/>
<rect width="43.9246" height="11.439" transform="matrix(1 0 -0.705955 0.708257 97.0754 44)" fill="#A00090"/>
</svg>
